<svg xmlns="http://www.w3.org/2000/svg" viewBox="0 0 21.19 17.67"><defs><style>.cls-1{fill:#fff;}</style></defs><g id="Camada_2" data-name="Camada 2"><g id="Camada_1-2" data-name="Camada 1"><path class="cls-1" d="M16.55,17.67h-.08a.32.32,0,0,0-.09,0,1.31,1.31,0,0,1-1-.58,6.92,6.92,0,0,1-.39-.91H8a1.77,1.77,0,0,0,0,.2,1.4,1.4,0,0,1-1,1.23,2.88,2.88,0,0,1-.4.09H6.5l-.1,0a1.46,1.46,0,0,1-1.27-1.11A1.44,1.44,0,0,1,5.76,15c.14-.09.12-.17.09-.29L2.49,2.58a.31.31,0,0,0-.26-.26c-.54-.14-1.07-.27-1.59-.44A1,1,0,0,1,0,.93,1,1,0,0,1,.7,0a1.4,1.4,0,0,1,.61,0C2,.21,2.69.4,3.38.59a1.1,1.1,0,0,1,.84.82c.17.62.36,1.23.53,1.85a.28.28,0,0,0,.33.25H19.92a1.83,1.83,0,0,1,.47,0,1.12,1.12,0,0,1,.8.84V4.8a.41.41,0,0,0-.05.09,1,1,0,0,1-1,.75,2.26,2.26,0,0,1-.45,0c-.23,0-.31.07-.36.28l-1.8,6.35a1.08,1.08,0,0,1-1.23.93H7.56l.23.9.11,0c1.4.08,2.8.14,4.19.24s3,.24,4.56.38a1.46,1.46,0,0,1,.5,2.77A4.08,4.08,0,0,1,16.55,17.67ZM9.8,5.8c0,.08,0,.14,0,.19.28,1.58.57,3.17.86,4.76,0,.13.08.18.22.17h1c.15,0,.2-.05.23-.19.28-1.57.56-3.13.85-4.7,0-.23,0-.25-.21-.25H10Zm6.4,0h-.87a.2.2,0,0,0-.25.19c-.35,1.58-.7,3.16-1.06,4.74,0,.17,0,.22.18.21h1.47c.14,0,.2,0,.24-.18L17.26,6c0-.18,0-.21-.17-.21ZM5.53,5.8a.5.5,0,0,0,0,.18L6.9,10.74a.21.21,0,0,0,.23.18H8.64c.16,0,.18-.05.15-.2C8.43,9.14,8.08,7.55,7.73,6c0-.15-.09-.19-.23-.19H5.72Z"/></g></g></svg>