<svg xmlns="http://www.w3.org/2000/svg" xmlns:xlink="http://www.w3.org/1999/xlink" viewBox="0 0 23.93 23.93"><defs><style>.cls-1{fill:none;}.cls-2{clip-path:url(#clip-path);}.cls-3{fill:#4267ad;}.cls-4{fill:#fff;}</style><clipPath id="clip-path" transform="translate(0 0)"><rect class="cls-1" width="23.93" height="23.93"/></clipPath></defs><g id="Camada_2" data-name="Camada 2"><g id="Camada_1-2" data-name="Camada 1"><g class="cls-2"><path class="cls-3" d="M22.61,0H1.32A1.32,1.32,0,0,0,0,1.32V22.61a1.32,1.32,0,0,0,1.32,1.32H22.61a1.32,1.32,0,0,0,1.32-1.32V1.32A1.32,1.32,0,0,0,22.61,0Z" transform="translate(0 0)"/></g><path class="cls-4" d="M16.52,23.93V14.67h3.12l.47-3.62H16.52V8.75c0-1,.29-1.76,1.79-1.76h1.9V3.76a23.28,23.28,0,0,0-2.78-.15c-2.76,0-4.65,1.69-4.65,4.78v2.66H9.67v3.62h3.11v9.26Z" transform="translate(0 0)"/></g></g></svg>