<svg xmlns="http://www.w3.org/2000/svg" viewBox="0 0 26.94 26.94"><defs><style>.cls-1{fill:#fff;}</style></defs><g id="Camada_2" data-name="Camada 2"><g id="Camada_1-2" data-name="Camada 1"><path class="cls-1" d="M26.86,7.92a9.75,9.75,0,0,0-.63-3.27,6.41,6.41,0,0,0-1.55-2.39A6.67,6.67,0,0,0,22.29.71,9.75,9.75,0,0,0,19,.08C17.59,0,17.13,0,13.47,0S9.35,0,7.92.08A9.75,9.75,0,0,0,4.65.71,6.83,6.83,0,0,0,.71,4.65,9.75,9.75,0,0,0,.08,7.92C0,9.35,0,9.81,0,13.47S0,17.59.08,19a9.75,9.75,0,0,0,.63,3.27,6.67,6.67,0,0,0,1.55,2.39,6.41,6.41,0,0,0,2.39,1.55,9.75,9.75,0,0,0,3.27.63c1.43.07,1.89.08,5.55.08s4.12,0,5.55-.08a9.75,9.75,0,0,0,3.27-.63,6.89,6.89,0,0,0,3.94-3.94A9.75,9.75,0,0,0,26.86,19c.07-1.43.08-1.89.08-5.55s0-4.12-.08-5.55Zm-2.42,11A7.33,7.33,0,0,1,24,21.42,4.45,4.45,0,0,1,21.42,24a7.33,7.33,0,0,1-2.51.47c-1.42.06-1.84.07-5.44.07s-4,0-5.44-.07A7.2,7.2,0,0,1,5.53,24,4,4,0,0,1,4,23a4.17,4.17,0,0,1-1-1.54,7.4,7.4,0,0,1-.46-2.51c-.07-1.42-.08-1.84-.08-5.44s0-4,.08-5.44A7.27,7.27,0,0,1,3,5.53,4.13,4.13,0,0,1,4,4,4.13,4.13,0,0,1,5.53,3,7.27,7.27,0,0,1,8,2.51c1.42-.07,1.84-.08,5.44-.08h0c3.6,0,4,0,5.44.08A7.66,7.66,0,0,1,21.42,3,4.17,4.17,0,0,1,23,4a4,4,0,0,1,1,1.55A7.2,7.2,0,0,1,24.44,8c.06,1.42.07,1.84.07,5.44s0,4-.07,5.44Z"/><path class="cls-1" d="M13.47,6.55a6.92,6.92,0,1,0,6.92,6.92,6.92,6.92,0,0,0-6.92-6.92Zm0,11.41A4.49,4.49,0,1,1,18,13.47,4.49,4.49,0,0,1,13.47,18Z"/><path class="cls-1" d="M22.28,6.28a1.62,1.62,0,1,1-1.62-1.62,1.63,1.63,0,0,1,1.62,1.62Z"/></g></g></svg>