<svg xmlns="http://www.w3.org/2000/svg" viewBox="0 0 27.46 27.46"><defs><style>.cls-1{fill:#fff;}</style></defs><g id="Camada_2" data-name="Camada 2"><g id="Camada_1-2" data-name="Camada 1"><path class="cls-1" d="M23.35,4A13.61,13.61,0,0,0,1.93,20.41L0,27.46l7.22-1.89a13.59,13.59,0,0,0,6.5,1.65h0A13.61,13.61,0,0,0,23.35,4ZM20.62,18.64a3.52,3.52,0,0,1-2.37,1.67c-.65.06-1.26.3-4.23-.88C10.44,18,8.18,14.35,8,14.11a6.88,6.88,0,0,1-1.44-3.64A4,4,0,0,1,7.8,7.53a1.29,1.29,0,0,1,.94-.44h.67c.25,0,.53,0,.79.61s1,2.44,1.09,2.61a.64.64,0,0,1,0,.62,11.45,11.45,0,0,1-.88,1.21c-.16.19-.36.36-.16.71a10.71,10.71,0,0,0,2,2.44,9.45,9.45,0,0,0,2.84,1.75c.35.18.55.15.76-.09s.88-1,1.11-1.38.47-.29.8-.17,2.05,1,2.4,1.14.59.27.68.41A2.9,2.9,0,0,1,20.62,18.64Z"/></g></g></svg>