<svg xmlns="http://www.w3.org/2000/svg" viewBox="0 0 27.77 27.9"><defs><style>.cls-1{fill:#64cf56;}.cls-2{fill:#fff;fill-rule:evenodd;}</style></defs><g id="Camada_2" data-name="Camada 2"><g id="Camada_1-2" data-name="Camada 1"><path class="cls-1" d="M0,27.9l2-7.17a13.83,13.83,0,1,1,12,6.93h0A13.82,13.82,0,0,1,7.33,26Z"/><path class="cls-2" d="M10.37,7.83c-.27-.59-.56-.61-.81-.62H8.87a1.3,1.3,0,0,0-.95.44,4,4,0,0,0-1.25,3,7,7,0,0,0,1.46,3.7c.18.24,2.47,4,6.11,5.4,3,1.19,3.64,1,4.3.9A3.64,3.64,0,0,0,21,18.94a3,3,0,0,0,.21-1.71c-.09-.15-.33-.23-.69-.41S18.36,15.77,18,15.65s-.57-.18-.81.18-.92,1.17-1.13,1.4-.42.27-.77.09a9.58,9.58,0,0,1-2.88-1.77,10.62,10.62,0,0,1-2-2.48c-.21-.36,0-.54.15-.73a11.59,11.59,0,0,0,.9-1.22.66.66,0,0,0,0-.63c-.09-.18-.79-2-1.1-2.66Z"/></g></g></svg>