<svg xmlns="http://www.w3.org/2000/svg" viewBox="0 0 89.75 112.37"><defs><style>.cls-1{fill:none;stroke:#fff;stroke-miterlimit:10;stroke-width:0.75px;}.cls-2{fill:#fff;}</style></defs><g id="Camada_2" data-name="Camada 2"><g id="Camada_1-2" data-name="Camada 1"><path class="cls-1" d="M60.38,56.73S45.63,67.3,31.53,59.26C18,51.54,16.09,36.88,14,30.29c0,0,17.81-5.66,32.89,2.94C57.05,39,52.91,52.48,60.38,56.73Z"/><path class="cls-1" d="M58.24,26.3a29.3,29.3,0,0,1-.16-13.14A37.37,37.37,0,0,1,62.75,1.49C57,5.84,55.4,10.4,54,13.89a30.3,30.3,0,0,0-1.67,11.79A18.57,18.57,0,0,1,53,13.49a29.47,29.47,0,0,1,3.9-7.07,26.23,26.23,0,0,0-7.1,11A30.46,30.46,0,0,0,48.29,26a17.61,17.61,0,0,1,.87-9.58,28.19,28.19,0,0,0-4.83,14.6c-.75,17,16.05,25.68,16.05,25.68.4-9,14.83-11.53,15.37-23.76.26-5.92-2.26-13.54-4.12-18.22-5.78,6.58-5.9,18.64-5.9,18.64-1.82-6-.84-12.31.23-16.69,2.17-9-.11-11.82-2.39-14.9a82.33,82.33,0,0,0-4,11.06A45.81,45.81,0,0,0,58.24,26.3Z"/><path class="cls-1" d="M21.42,35.39c4.42-.8,11.07.51,16.33,4.3a24.9,24.9,0,0,1,8.88,12.78A41.11,41.11,0,0,0,36.36,41.18C32.39,38.34,30.22,37.17,21.42,35.39Z"/><path class="cls-1" d="M46.88,33.23c-.85-.48-1.7-.92-2.56-1.31-.15,16.29,15.85,24.71,16,24.81C52.92,52.47,57,39,46.88,33.23Z"/><path class="cls-2" d="M54.22,109.07a7.55,7.55,0,0,1-3,2.53,9,9,0,0,1-3.7.77,9.9,9.9,0,0,1-3.78-.71,8.47,8.47,0,0,1-2.95-2,9.16,9.16,0,0,1-1.91-3,10.32,10.32,0,0,1-.69-3.81,10.16,10.16,0,0,1,.69-3.8,9.11,9.11,0,0,1,1.91-3,8.8,8.8,0,0,1,2.95-2,9.9,9.9,0,0,1,3.78-.71A9.12,9.12,0,0,1,51,94a6.8,6.8,0,0,1,2.79,2.18l-1.38,1.15a5,5,0,0,0-2.15-1.86,6.61,6.61,0,0,0-2.7-.59,7.86,7.86,0,0,0-3.17.61,7.16,7.16,0,0,0-2.41,1.68,7.62,7.62,0,0,0-1.53,2.53,9.37,9.37,0,0,0,0,6.27,7.52,7.52,0,0,0,1.53,2.53,7.16,7.16,0,0,0,2.41,1.68,7.86,7.86,0,0,0,3.17.61,6.53,6.53,0,0,0,1.43-.16,6.17,6.17,0,0,0,1.44-.51,6.68,6.68,0,0,0,1.34-.87A5.72,5.72,0,0,0,52.85,108Z"/><path class="cls-2" d="M56.8,93.85h1.68v8h10.1v-8h1.68v18.06H68.58v-8.57H58.48v8.57H56.8Z"/><path class="cls-2" d="M80.24,93.85H82l7.6,18.06H87.69l-2-4.8H76.16l-2,4.8H72.36ZM81,95.68l-4.21,9.9h8.29Z"/><path class="cls-2" d="M7.82,72.3H9.54l7.54,17.92H15.2l-1.94-4.76H3.77l-2,4.76H0Zm.78,1.83L4.43,83.94h8.22Z"/><path class="cls-2" d="M21.4,73.82H11.83l-.5-1.52h19v1.52h-7.3v16.4H21.4Z"/><path class="cls-2" d="M32,72.3h11v1.52H33.62V80.2h8.7v1.52h-8.7v7H44.3v1.52H32Z"/><path class="cls-2" d="M45.94,72.3h1.67V88.7H57v1.52h-11Z"/><path class="cls-2" d="M59.08,72.3h1.67V90.22H59.08Z"/><path class="cls-2" d="M63.66,72.3H76.48v1.52H65.33V80.2H74v1.52h-8.7v7H75v1.52H63.66Z"/><path class="cls-2" d="M78,72.3h4.71l1,0a11.21,11.21,0,0,1,1.31.15,8.25,8.25,0,0,1,1.44.41,3.92,3.92,0,0,1,1.32.81,4.07,4.07,0,0,1,1,1.34,4.68,4.68,0,0,1,.38,2,4.61,4.61,0,0,1-.44,2.13,4.26,4.26,0,0,1-1.12,1.35,4.75,4.75,0,0,1-1.48.77,8.65,8.65,0,0,1-1.54.35l5.21,8.61h-1.9l-5-8.5H79.71v8.5H78Zm1.67,7.9h3.54a5.83,5.83,0,0,0,2.14-.33,3.61,3.61,0,0,0,1.28-.81,2.62,2.62,0,0,0,.62-1,3.27,3.27,0,0,0,0-2,2.62,2.62,0,0,0-.62-1,3.61,3.61,0,0,0-1.28-.81,5.83,5.83,0,0,0-2.14-.33H79.71Z"/><path class="cls-2" d="M81,93.49a3.31,3.31,0,0,1,.88-3.21c1.37-1.16,3-.78,3.82-.75A5.33,5.33,0,0,1,84.06,93C83,93.83,81.74,92.85,81,93.49Z"/><path class="cls-2" d="M.15,95.29H5.3A11.17,11.17,0,0,1,9,95.82a8,8,0,0,1,2.5,1.35A6.59,6.59,0,0,1,13.05,99a9,9,0,0,1,.85,1.91,9.25,9.25,0,0,1,.34,1.66c0,.49.07.84.07,1.05s0,.55-.07,1a9.08,9.08,0,0,1-.34,1.66,9.27,9.27,0,0,1-.85,1.92,6.7,6.7,0,0,1-1.58,1.82A8,8,0,0,1,9,111.41a10.91,10.91,0,0,1-3.67.53H.15ZM1.7,110.53H4.9A11.24,11.24,0,0,0,8,110.12a7.1,7.1,0,0,0,2.5-1.26,6,6,0,0,0,1.67-2.15,8.16,8.16,0,0,0,0-6.19,6.06,6.06,0,0,0-1.67-2.15A7.27,7.27,0,0,0,8,97.11,11.24,11.24,0,0,0,4.9,96.7H1.7Z"/><path class="cls-2" d="M16.24,103.62a9.52,9.52,0,0,1,.63-3.51,8.33,8.33,0,0,1,1.77-2.76,7.89,7.89,0,0,1,2.71-1.82,9.58,9.58,0,0,1,7,0,8,8,0,0,1,2.71,1.82,8.33,8.33,0,0,1,1.77,2.76,10.09,10.09,0,0,1,0,7,8.32,8.32,0,0,1-1.77,2.78,8,8,0,0,1-2.71,1.81,9.72,9.72,0,0,1-7,0,7.87,7.87,0,0,1-2.71-1.81,8.32,8.32,0,0,1-1.77-2.78A9.52,9.52,0,0,1,16.24,103.62Zm1.55,0a8.31,8.31,0,0,0,.49,2.89,7,7,0,0,0,1.41,2.33,6.67,6.67,0,0,0,2.23,1.55,7.21,7.21,0,0,0,2.92.56,7.22,7.22,0,0,0,2.93-.56A6.53,6.53,0,0,0,30,108.84a6.82,6.82,0,0,0,1.42-2.33,8.8,8.8,0,0,0,0-5.79A6.69,6.69,0,0,0,30,98.4a6.55,6.55,0,0,0-2.22-1.56,7.92,7.92,0,0,0-5.85,0,6.69,6.69,0,0,0-2.23,1.56,6.82,6.82,0,0,0-1.41,2.32A8.33,8.33,0,0,0,17.79,103.62Z"/></g></g></svg>