<svg xmlns="http://www.w3.org/2000/svg" viewBox="0 0 90.99 112.74"><defs><style>.cls-1{fill:none;stroke:#fff;stroke-miterlimit:10;stroke-width:0.75px;}</style></defs><g id="Camada_2" data-name="Camada 2"><g id="Camada_1-2" data-name="Camada 1"><path class="cls-1" d="M61,56.73S46.21,67.3,32.11,59.26c-13.55-7.72-15.45-22.38-17.55-29,0,0,17.81-5.66,32.89,2.94C57.62,39,53.49,52.48,61,56.73Z"/><path class="cls-1" d="M58.81,26.3a29.45,29.45,0,0,1-.16-13.14A37.33,37.33,0,0,1,63.33,1.49C57.54,5.84,56,10.4,54.61,13.89A30.12,30.12,0,0,0,53,25.68a18.55,18.55,0,0,1,.64-12.19,29.47,29.47,0,0,1,3.9-7.07,26.19,26.19,0,0,0-7.09,11A30.07,30.07,0,0,0,48.86,26a17.61,17.61,0,0,1,.87-9.58,28.28,28.28,0,0,0-4.83,14.6C44.16,48,61,56.74,61,56.74c.4-9,14.83-11.53,15.37-23.76.26-5.92-2.26-13.54-4.11-18.22-5.79,6.58-5.9,18.64-5.9,18.64-1.82-6-.85-12.31.22-16.69,2.18-9-.1-11.82-2.39-14.9a83.76,83.76,0,0,0-4,11.06A46.15,46.15,0,0,0,58.81,26.3Z"/><path class="cls-1" d="M22,35.39c4.42-.8,11.08.51,16.34,4.3a24.9,24.9,0,0,1,8.88,12.78A41.24,41.24,0,0,0,36.93,41.18C33,38.34,30.79,37.17,22,35.39Z"/><path class="cls-1" d="M47.45,33.23c-.84-.48-1.7-.92-2.56-1.31-.15,16.29,15.85,24.71,16,24.81C53.49,52.47,57.62,39,47.45,33.23Z"/><path class="cls-1" d="M54.8,109.07a7.62,7.62,0,0,1-3,2.53,9,9,0,0,1-3.7.77,9.91,9.91,0,0,1-3.79-.71,8.47,8.47,0,0,1-2.95-2,9.16,9.16,0,0,1-1.91-3,10.32,10.32,0,0,1-.69-3.81,10.16,10.16,0,0,1,.69-3.8,9.11,9.11,0,0,1,1.91-3,8.8,8.8,0,0,1,2.95-2,9.91,9.91,0,0,1,3.79-.71,9.06,9.06,0,0,1,3.43.65,6.8,6.8,0,0,1,2.79,2.18l-1.38,1.15a4.94,4.94,0,0,0-2.15-1.86,6.56,6.56,0,0,0-2.69-.59,7.91,7.91,0,0,0-3.18.61,7.26,7.26,0,0,0-2.41,1.68A7.62,7.62,0,0,0,41,99.74,9.54,9.54,0,0,0,41,106a7.52,7.52,0,0,0,1.53,2.53,7.26,7.26,0,0,0,2.41,1.68,7.91,7.91,0,0,0,3.18.61,6.6,6.6,0,0,0,1.43-.16,6.52,6.52,0,0,0,1.44-.51,7.29,7.29,0,0,0,1.34-.87A5.68,5.68,0,0,0,53.42,108Z"/><path class="cls-1" d="M57.37,93.85h1.68v8H69.16v-8h1.68v18.06H69.16v-8.57H59.05v8.57H57.37Z"/><path class="cls-1" d="M80.81,93.85h1.73l7.61,18.06H88.26l-2-4.8H76.73l-2,4.8H72.93Zm.79,1.83-4.21,9.9h8.29Z"/><path class="cls-1" d="M8.39,72.3h1.72l7.54,17.92H15.78l-1.95-4.76H4.34l-2,4.76H.57Zm.78,1.83L5,83.94h8.22Z"/><path class="cls-1" d="M22,73.82H12.4l-.5-1.52h19v1.52h-7.3v16.4H22Z"/><path class="cls-1" d="M32.52,72.3H43.47v1.52H34.19V80.2h8.7v1.52h-8.7v7H44.88v1.52H32.52Z"/><path class="cls-1" d="M46.52,72.3h1.67V88.7h9.34v1.52h-11Z"/><path class="cls-1" d="M59.66,72.3h1.67V90.22H59.66Z"/><path class="cls-1" d="M64.23,72.3H77.05v1.52H65.9V80.2h8.7v1.52H65.9v7h9.69v1.52H64.23Z"/><path class="cls-1" d="M78.61,72.3h4.71l1,0a11.21,11.21,0,0,1,1.31.15,8.11,8.11,0,0,1,1.45.41,3.88,3.88,0,0,1,1.31.81,4.07,4.07,0,0,1,1,1.34,4.53,4.53,0,0,1,.38,2,4.61,4.61,0,0,1-.44,2.13,4.24,4.24,0,0,1-1.11,1.35,4.86,4.86,0,0,1-1.48.77,8.75,8.75,0,0,1-1.55.35l5.22,8.61h-1.9l-5-8.5H80.28v8.5H78.61Zm1.67,7.9h3.54A5.83,5.83,0,0,0,86,79.87a3.53,3.53,0,0,0,1.28-.81,2.62,2.62,0,0,0,.62-1,3.27,3.27,0,0,0,0-2,2.62,2.62,0,0,0-.62-1A3.53,3.53,0,0,0,86,74.15a5.83,5.83,0,0,0-2.14-.33H80.28Z"/><path class="cls-1" d="M81.56,93.49a3.31,3.31,0,0,1,.88-3.21c1.37-1.16,3-.78,3.82-.75A5.27,5.27,0,0,1,84.63,93C83.6,93.83,82.32,92.85,81.56,93.49Z"/><path class="cls-1" d="M.72,95.29H5.87a11.17,11.17,0,0,1,3.67.53,8.07,8.07,0,0,1,2.51,1.35A6.72,6.72,0,0,1,13.62,99a8.51,8.51,0,0,1,.85,1.91,9.25,9.25,0,0,1,.34,1.66c0,.49.07.84.07,1.05s0,.55-.07,1a9.08,9.08,0,0,1-.34,1.66,8.77,8.77,0,0,1-.85,1.92,6.83,6.83,0,0,1-1.57,1.82,8.07,8.07,0,0,1-2.51,1.35,10.91,10.91,0,0,1-3.67.53H.72Zm1.56,15.24H5.47a11.37,11.37,0,0,0,3.09-.41,7.14,7.14,0,0,0,2.49-1.26,6,6,0,0,0,1.67-2.15,8.16,8.16,0,0,0,0-6.19,6.06,6.06,0,0,0-1.67-2.15,7.31,7.31,0,0,0-2.49-1.26,11.37,11.37,0,0,0-3.09-.41H2.28Z"/><path class="cls-1" d="M16.81,103.62a9.33,9.33,0,0,1,.64-3.51,8.31,8.31,0,0,1,1.76-2.76,7.93,7.93,0,0,1,2.72-1.82,9.56,9.56,0,0,1,7,0,8,8,0,0,1,2.72,1.82,8.31,8.31,0,0,1,1.76,2.76,10.09,10.09,0,0,1,0,7,8.29,8.29,0,0,1-1.76,2.78,8,8,0,0,1-2.72,1.81,9.69,9.69,0,0,1-7,0,7.91,7.91,0,0,1-2.72-1.81,8.29,8.29,0,0,1-1.76-2.78A9.33,9.33,0,0,1,16.81,103.62Zm1.55,0a8.32,8.32,0,0,0,.5,2.89,7,7,0,0,0,1.41,2.33,6.53,6.53,0,0,0,2.22,1.55,7.26,7.26,0,0,0,2.93.56,7.26,7.26,0,0,0,2.93-.56,6.63,6.63,0,0,0,2.22-1.55A7,7,0,0,0,32,106.51a8.8,8.8,0,0,0,0-5.79,6.82,6.82,0,0,0-1.41-2.32,6.65,6.65,0,0,0-2.22-1.56,7.95,7.95,0,0,0-5.86,0,6.55,6.55,0,0,0-2.22,1.56,6.82,6.82,0,0,0-1.41,2.32A8.33,8.33,0,0,0,18.36,103.62Z"/></g></g></svg>